<?xml version="1.0" encoding="UTF-8"?><svg id="a" xmlns="http://www.w3.org/2000/svg" viewBox="0 0 1112.08 188.47"><defs><style>.b{fill:#fff;}.b,.c,.d,.e,.f{stroke-width:0px;}.c{fill:#fff;}.d{fill-rule:evenodd;}.d,.f{fill:#412b32;}.e{fill:#fbaf30;}</style></defs><path class="c" d="M98.09,124.31c0,2.52-.5,7.15-1.49,13.89-1.05,7.33-1.99,11.69-2.81,13.1-.7,1.11-1.67,1.67-2.9,1.67-.53,0-1.41-.09-2.64-.26-4.28-.59-16.76-.88-37.44-.88-4.51,0-11.22-.03-20.13-.09-8.91-.06-15.59-.09-20.04-.09-1.93,0-2.9-.85-2.9-2.55,0-6.56.37-16.42,1.1-29.58.73-13.15,1.1-23.01,1.1-29.58s-.35-19.13-1.05-37.35c-.18-4.69-.5-11.69-.97-21.01l-.09-1.23c-.12-1.35.62-2.02,2.2-2.02,4.34,0,10.85.12,19.56.35,8.7.23,15.22.35,19.56.35s10.72-.12,19.34-.35c8.61-.23,15.06-.35,19.34-.35,3.05,0,4.8,1.14,5.27,3.43.29,1.35.75,5.44,1.36,12.26.62,6.83.92,10.97.92,12.44,0,1.23-.59,1.85-1.76,1.85-.35,0-.97-.03-1.85-.09-15.59-1.29-29.59-1.93-42.01-1.93-3.11,0-5.01.73-5.71,2.2-.29.7-.44,2.96-.44,6.77s.58,6.62,1.76,7.91c1,1.11,2.9,1.67,5.71,1.67.58,0,1.73-.04,3.43-.13,1.7-.09,3.1-.13,4.22-.13,7.38,0,14.85-.2,22.41-.62.64-.06,2.25-.2,4.83-.44,1.99-.23,3.57-.35,4.75-.35,1.41,0,2.11.67,2.11,2.02,0-1.23-.53,3.25-1.58,13.45-.47,4.69-.7,9.38-.7,14.06,0,1.17-.85,1.76-2.55,1.76l-7.91-.88c-3.34-.35-10.96-.53-22.85-.53h-9.32c-2.4,0-3.81.59-4.22,1.76-.06.29-.09,2.11-.09,5.45,0,4.45.29,7.33.88,8.61,1,2.23,4.75,3.55,11.25,3.96-.12,0,4.16,0,12.83,0,3.1,0,7.72-.28,13.84-.83,6.12-.56,10.71-.83,13.75-.83,1.29,0,1.93,1.05,1.93,3.16Z"/><path class="c" d="M240.82,148.92c0,1.82-.85,2.72-2.55,2.72h-31.11c-1.7,0-2.55-1.02-2.55-3.08,0-5.92.22-14.79.66-26.63.44-11.83.66-20.71.66-26.63,0-1.7-.26-2.61-.79-2.72-.65.35-4.57,9.4-11.78,27.16-4.22,10.43-8.44,20.83-12.66,31.2-.59,1.35-1.32,2.14-2.2,2.37-.29.06-1.47.09-3.52.09-3.05,0-4.86-.59-5.45-1.76-3.16-6.45-7.33-15.82-12.48-28.12-5.51-13.01-9.64-22.41-12.39-28.21-.12-.29-.38-.62-.79-.97-.41.53-.62,1.38-.62,2.55,0,5.74.15,14.36.44,25.84.29,11.48.44,20.1.44,25.84,0,2.05-.82,3.08-2.46,3.08h-29.36c-1.17,0-1.89-.19-2.15-.57-.26-.38-.4-1.04-.4-1.98,0-6.39.31-15.98.92-28.78.62-12.8.92-22.4.92-28.78,0-6.8-.29-19.54-.88-38.23-.06-4.86-.32-12.1-.79-21.71l-.09-1.49c-.06-1.17,1.17-1.76,3.69-1.76,3.22,0,8.06-.1,14.5-.31,6.44-.2,11.28-.31,14.5-.31.64,0,1.55,1.23,2.72,3.69l25.66,56.34c1.82,3.81,3.34,5.71,4.57,5.71.64,0,2.02-2.2,4.13-6.59,5.92-12.3,14.68-30.85,26.28-55.63,1-2.29,2.08-3.43,3.25-3.43,1.7,0,4.26.09,7.69.26s6.02.26,7.78.26c1.46,0,3.71-.15,6.72-.44,3.02-.29,5.26-.44,6.72-.44,1.76,0,2.64.7,2.64,2.11,0,6.91-.25,17.24-.75,30.98-.5,13.74-.75,24.07-.75,30.98,0,6.39.26,15.97.79,28.74.53,12.77.79,22.32.79,28.65Z"/><path class="c" d="M435.41,103.92c0,14.65-1.2,25.99-3.6,34.01-4.34,14.24-11.31,25.4-20.92,33.49-1.11,1-2.02,1.49-2.72,1.49-.65,0-1.29-.38-1.93-1.14-2.05-2.4-5.24-6.01-9.58-10.81-2.52-2.11-6.24-5.39-11.16-9.84-.65-.7-.97-1.29-.97-1.76,0-.53.32-1.08.97-1.67,4.34-3.81,7.09-6.42,8.26-7.82,2.29-2.75,4.04-6.21,5.27-10.37,1.64-5.68,2.46-15.03,2.46-28.04,0-30.12-1.05-53.47-3.16-70.05-.12-.58-.18-1.02-.18-1.32,0-1.05.94-1.58,2.81-1.58s4.64.09,8.31.26c3.66.18,6.43.26,8.31.26,1.76,0,4.36-.09,7.82-.26,3.46-.18,6.06-.26,7.82-.26s2.55.76,2.55,2.29c0,8.09-.06,20.26-.18,36.52-.12,16.26-.18,28.46-.18,36.61Z"/><path class="c" d="M488.67,86.69c0,6.91.18,17.31.53,31.2s.53,24.29.53,31.2c0,1.17-.26,1.9-.79,2.2-.12.06-.88.18-2.29.35-3.81.47-8.91.7-15.29.7-8.56,0-14-.23-16.35-.7-1.7-.35-2.55-1.26-2.55-2.72,0,.94.26-4.22.79-15.47,1.05-23.73,1.58-39.32,1.58-46.76,0-6.27-.21-15.67-.62-28.21-.41-12.54-.62-21.94-.62-28.21,0-1.29.67-1.93,2.02-1.93,1.82,0,4.56.09,8.22.26,3.66.18,6.4.26,8.22.26s4.5-.09,8.04-.26c3.54-.18,6.23-.26,8.04-.26,1.7,0,2.55.65,2.55,1.93,0,6.27-.34,15.67-1.01,28.21-.67,12.54-1.01,21.94-1.01,28.21Z"/><path class="c" d="M637.65,148.92c0,1.82-.85,2.72-2.55,2.72h-31.11c-1.7,0-2.55-1.02-2.55-3.08,0-5.92.22-14.79.66-26.63.44-11.83.66-20.71.66-26.63,0-1.7-.26-2.61-.79-2.72-.65.35-4.57,9.4-11.78,27.16-4.22,10.43-8.44,20.83-12.66,31.2-.59,1.35-1.32,2.14-2.2,2.37-.29.06-1.46.09-3.52.09-3.05,0-4.86-.59-5.45-1.76-3.16-6.45-7.33-15.82-12.48-28.12-5.51-13.01-9.64-22.41-12.39-28.21-.12-.29-.38-.62-.79-.97-.41.53-.62,1.38-.62,2.55,0,5.74.15,14.36.44,25.84.29,11.48.44,20.1.44,25.84,0,2.05-.82,3.08-2.46,3.08h-29.36c-1.17,0-1.89-.19-2.15-.57-.26-.38-.4-1.04-.4-1.98,0-6.39.31-15.98.92-28.78.62-12.8.92-22.4.92-28.78,0-6.8-.29-19.54-.88-38.23-.06-4.86-.32-12.1-.79-21.71l-.09-1.49c-.06-1.17,1.17-1.76,3.69-1.76,3.22,0,8.06-.1,14.5-.31,6.45-.2,11.28-.31,14.5-.31.64,0,1.55,1.23,2.72,3.69l25.66,56.34c1.82,3.81,3.34,5.71,4.57,5.71.64,0,2.02-2.2,4.13-6.59,5.92-12.3,14.68-30.85,26.28-55.63,1-2.29,2.08-3.43,3.25-3.43,1.7,0,4.26.09,7.69.26s6.02.26,7.78.26c1.46,0,3.71-.15,6.72-.44,3.02-.29,5.26-.44,6.72-.44,1.76,0,2.64.7,2.64,2.11,0,6.91-.25,17.24-.75,30.98-.5,13.74-.75,24.07-.75,30.98,0,6.39.26,15.97.79,28.74.53,12.77.79,22.32.79,28.65Z"/><path class="c" d="M769.92,149.45c0,1.05-.73,1.79-2.2,2.2-1.76.47-7.21.7-16.35.7-8.38,0-13.77-.23-16.17-.7-1.99-.41-3.25-1.73-3.78-3.96-1.99-8.44-3.55-12.95-4.66-13.54-.94-.41-8.79-.62-23.55-.62-9.96,0-15.26.26-15.91.79-1,.94-2.11,4.07-3.34,9.4-1.11,4.86-2.46,7.5-4.04,7.91-1.99.47-8.67.7-20.04.7-8.96,0-13.45-.85-13.45-2.55,0-1.52,6.62-20.24,19.86-56.16,14.36-38.85,22.15-60.21,23.38-64.07.7-2.23,1.52-3.34,2.46-3.34,1.58,0,4.03.15,7.34.44,3.31.29,5.79.44,7.43.44s3.91-.1,6.99-.31c3.08-.2,5.38-.31,6.9-.31,1.11,0,2.14.97,3.08,2.9,2.87,6.15,11.25,27.25,25.14,63.28,13.94,36.27,20.92,55.2,20.92,56.78ZM707.61,69.38c-1.23,2.58-3.31,8.17-6.24,16.79-3.16,9.14-4.75,14.5-4.75,16.08,0,1.05,1.76,1.64,5.27,1.76,1.82.12,4.8.18,8.96.18,3.87,0,6.01-.47,6.42-1.41.12-.29.18-.7.18-1.23,0-1.93-1.35-7.26-4.04-16-2.64-8.44-4.57-13.83-5.8-16.17Z"/><path class="c" d="M864.49,55.23c0,1.17-.65,1.76-1.93,1.76-2.23,0-11.04-.44-26.46-1.32-.35,14.82-.53,25.17-.53,31.03,0,6.91.28,17.31.83,31.2.56,13.89.83,24.29.83,31.2,0,1.11-.26,1.82-.79,2.11-.18.12-1,.26-2.46.44-3.52.47-8.67.7-15.47.7-7.56,0-12.86-.23-15.91-.7-1.64-.29-2.46-1.2-2.46-2.72,0-6.91.29-17.28.88-31.11.58-13.83.88-24.2.88-31.11,0-4.57-.23-14.77-.7-30.59-11.72,1.17-21.06,1.76-28.04,1.76-.94,0-1.41-.29-1.41-.88,0-.76.41-3.02,1.23-6.77.94-4.1,1.46-6.59,1.58-7.47.18-2.75.38-5.51.62-8.26.41-4.39,1.11-6.59,2.11-6.59.12,0,.53.03,1.23.09,9.49,1.23,23.52,1.85,42.1,1.85,5.27,0,15-.56,29.18-1.67,7.62-.58,11.46-.88,11.51-.88,1.17,0,1.85.07,2.02.22.18.15.29.72.35,1.71,0,1.58-.06,3.78-.18,6.59-.12,3.11-.18,5.3-.18,6.59,0,1.47.19,3.62.57,6.46.38,2.84.57,4.97.57,6.37Z"/><path class="c" d="M976.55,131.78c0,.94-.62,2.17-1.85,3.69-10.78,12.83-25.11,19.25-42.98,19.25s-33.11-6.24-44.47-18.72c-11.07-12.07-16.61-27.3-16.61-45.7s5.42-32.93,16.26-45.35c11.31-13.01,25.69-19.51,43.15-19.51,18.98,0,33.87,5.83,44.65,17.49,1.17,1.29,1.76,2.43,1.76,3.43,0,1.11-2.04,5.24-6.11,12.39-4.07,7.15-6.64,11.16-7.69,12.04-.47.47-1.05.7-1.76.7-.29,0-1.76-1.17-4.39-3.52-3.16-2.81-6.27-5.01-9.32-6.59-4.63-2.34-9.43-3.52-14.41-3.52-8.61,0-15.5,3.22-20.65,9.67-4.75,5.98-7.12,13.36-7.12,22.15s2.37,16.38,7.12,22.41c5.16,6.56,12.04,9.84,20.65,9.84,5.1,0,9.93-1.11,14.5-3.34,2.99-1.46,6.03-3.52,9.14-6.15,2.58-2.23,4.01-3.34,4.31-3.34.58,0,1.17.32,1.76.97.94,1.05,3.49,4.72,7.65,10.99,4.28,6.5,6.42,10.08,6.42,10.72Z"/><path class="c" d="M1103.99,148.92c0,1.23-.26,1.99-.79,2.29-.23.18-1.05.32-2.46.44-3.57.35-8.61.53-15.12.53-9.2,0-14.6-.18-16.22-.53-1.61-.35-2.42-1.14-2.42-2.37,0-4.63.22-11.59.66-20.87.44-9.29.66-16.24.66-20.87,0-2.29-.65-3.6-1.93-3.96-1.99-.47-9.08-.7-21.27-.7s-19.39.23-21.45.7c-1.29.29-1.93,1.61-1.93,3.96,0,4.57.15,11.41.44,20.52.29,9.11.44,15.95.44,20.52,0,1.76-.79,2.78-2.37,3.08-1.88.35-7.38.53-16.52.53-7.91,0-12.95-.18-15.12-.53-1.7-.29-2.55-1.2-2.55-2.72,0-6.33.31-15.88.92-28.65.62-12.77.92-22.35.92-28.74,0-6.8-.29-17.01-.88-30.63-.59-13.62-.88-23.83-.88-30.63,0-1.29.62-1.93,1.85-1.93,1.82,0,4.56.09,8.22.26,3.66.18,6.4.26,8.22.26s4.7-.09,8.48-.26,6.61-.26,8.48-.26c1,0,1.49.53,1.49,1.58,0,4.39-.32,10.97-.97,19.73-.65,8.76-.97,15.34-.97,19.73,0,2.05.56,3.25,1.67,3.6,1.52.47,9.02.7,22.5.7,12.54,0,19.8-.23,21.8-.7,1.41-.35,2.11-1.55,2.11-3.6,0-4.22-.21-10.59-.62-19.12-.41-8.53-.62-14.93-.62-19.2,0-1.82.73-2.72,2.2-2.72,1.7,0,4.29.09,7.78.26,3.49.18,6.11.26,7.87.26s4.29-.09,7.78-.26c3.49-.18,6.11-.26,7.87-.26s2.55.7,2.55,2.11c0,6.74-.28,16.91-.83,30.5-.56,13.59-.83,23.79-.83,30.59,0,6.39.31,15.97.92,28.74.62,12.77.92,22.32.92,28.65Z"/><path class="e" d="M316.55,155.53c43.83,0,65.74-29.43,65.74-65.74s-21.9-65.74-65.74-65.74-65.74,29.43-65.74,65.74,21.9,65.74,65.74,65.74Z"/><path class="b" d="M291.13,95.37c10.58,0,19.16-8.58,19.16-19.16s-8.58-19.16-19.16-19.16-19.16,8.58-19.16,19.16,8.58,19.16,19.16,19.16Z"/><path class="b" d="M341.92,95.72c10.68,0,19.33-8.66,19.33-19.33s-8.66-19.33-19.33-19.33-19.33,8.66-19.33,19.33,8.66,19.33,19.33,19.33Z"/><path class="f" d="M293.78,89.79c7.55,0,13.67-6.12,13.67-13.67s-6.12-13.67-13.67-13.67-13.67,6.12-13.67,13.67,6.12,13.67,13.67,13.67Z"/><path class="f" d="M339.33,89.79c7.55,0,13.67-6.12,13.67-13.67s-6.12-13.67-13.67-13.67-13.67,6.12-13.67,13.67,6.12,13.67,13.67,13.67Z"/><path class="d" d="M291.04,104.37c2.01-1.51,4.87-1.1,6.38.91,1.41,1.88,7.8,7.29,19.13,7.29s17.72-5.41,19.13-7.29c1.51-2.01,4.36-2.42,6.38-.91,2.01,1.51,2.42,4.36.91,6.38-3.15,4.19-12.25,10.93-26.42,10.93s-23.27-6.74-26.42-10.93c-1.51-2.01-1.1-4.87.91-6.38Z"/></svg>